<svg xmlns="http://www.w3.org/2000/svg"  viewBox="0 0 100 100" width="100px" height="100px"><path fill="#f9e65c" d="M79.143,81H20.857C17.075,81,14,77.91,14,74.111V25.889C14,22.09,17.075,19,20.857,19h58.286 C82.925,19,86,22.09,86,25.889v48.222C86,77.91,82.925,81,79.143,81z"/><path fill="#1f212b" d="M79.143,82H20.857C16.524,82,13,78.461,13,74.111V25.889C13,21.539,16.524,18,20.857,18h58.286 C83.476,18,87,21.539,87,25.889v48.223C87,78.461,83.476,82,79.143,82z M20.857,20C17.627,20,15,22.642,15,25.889v48.223 C15,77.358,17.627,80,20.857,80h58.286C82.373,80,85,77.358,85,74.111V25.889C85,22.642,82.373,20,79.143,20H20.857z"/><path fill="#60be92" d="M21.5,26.5h57v47h-57V26.5z"/><path fill="#1f212b" d="M78.5,74h-6c-0.276,0-0.5-0.224-0.5-0.5s0.224-0.5,0.5-0.5H78V49.5c0-0.276,0.224-0.5,0.5-0.5 s0.5,0.224,0.5,0.5v24C79,73.776,78.776,74,78.5,74z M69.5,74h-2c-0.276,0-0.5-0.224-0.5-0.5s0.224-0.5,0.5-0.5h2 c0.276,0,0.5,0.224,0.5,0.5S69.776,74,69.5,74z M57.5,74h-25c-0.276,0-0.5-0.224-0.5-0.5s0.224-0.5,0.5-0.5h25 c0.276,0,0.5,0.224,0.5,0.5S57.776,74,57.5,74z M22.5,74h-1c-0.276,0-0.5-0.224-0.5-0.5v-29c0-0.276,0.224-0.5,0.5-0.5 s0.5,0.224,0.5,0.5V73h0.5c0.276,0,0.5,0.224,0.5,0.5S22.776,74,22.5,74z M21.5,42c-0.276,0-0.5-0.224-0.5-0.5v-2 c0-0.276,0.224-0.5,0.5-0.5s0.5,0.224,0.5,0.5v2C22,41.776,21.776,42,21.5,42z M78.5,40c-0.276,0-0.5-0.224-0.5-0.5V27H66.5 c-0.276,0-0.5-0.224-0.5-0.5s0.224-0.5,0.5-0.5h12c0.276,0,0.5,0.224,0.5,0.5v13C79,39.776,78.776,40,78.5,40z M21.5,30 c-0.276,0-0.5-0.224-0.5-0.5v-3c0-0.276,0.224-0.5,0.5-0.5h30c0.276,0,0.5,0.224,0.5,0.5S51.776,27,51.5,27H22v2.5 C22,29.776,21.776,30,21.5,30z M56.5,27h-2c-0.276,0-0.5-0.224-0.5-0.5s0.224-0.5,0.5-0.5h2c0.276,0,0.5,0.224,0.5,0.5 S56.776,27,56.5,27z"/><path fill="#fefdef" d="M50,37.5c-3.038,0-5.5,2.462-5.5,5.5s2.462,5.5,5.5,5.5s5.5-2.462,5.5-5.5S53.038,37.5,50,37.5z"/><path fill="#1f212b" d="M50,49c-3.309,0-6-2.691-6-6s2.691-6,6-6s6,2.691,6,6S53.309,49,50,49z M50,38c-2.757,0-5,2.243-5,5 s2.243,5,5,5s5-2.243,5-5S52.757,38,50,38z"/><path fill="#a1d3a2" d="M36,44.5c-1.933,0-3.5,1.567-3.5,3.5s1.567,3.5,3.5,3.5c1.933,0,3.5-1.567,3.5-3.5 S37.933,44.5,36,44.5z"/><path fill="#1f212b" d="M36,52c-2.206,0-4-1.794-4-4s1.794-4,4-4s4,1.794,4,4S38.206,52,36,52z M36,45c-1.654,0-3,1.346-3,3 s1.346,3,3,3s3-1.346,3-3S37.654,45,36,45z"/><path fill="#eddc67" d="M70.5,73.5h-14l7,7h14L70.5,73.5z"/><path fill="#1f212b" d="M77.5,81h-7.899c-0.276,0-0.5-0.224-0.5-0.5s0.224-0.5,0.5-0.5h6.692l-6-6H57.662 c0.084,0.185,0.05,0.409-0.102,0.561c-0.195,0.195-0.512,0.195-0.707,0l-0.707-0.707c-0.143-0.143-0.186-0.358-0.108-0.545 C56.115,73.122,56.298,73,56.5,73h14c0.133,0,0.26,0.053,0.354,0.146l7,7c0.143,0.143,0.186,0.358,0.108,0.545 C77.885,80.878,77.702,81,77.5,81z M60.743,78.242c-0.128,0-0.256-0.049-0.354-0.146l-1.414-1.414 c-0.195-0.195-0.195-0.512,0-0.707s0.512-0.195,0.707,0l1.414,1.414c0.195,0.195,0.195,0.512,0,0.707 C60.999,78.193,60.871,78.242,60.743,78.242z"/><path fill="#a1d3a2" d="M72.5,58.229c0-0.77-0.282-1.513-0.81-2.075c-1.199-1.279-3.754-2.654-7.844-2.654 s-6.644,1.375-7.844,2.654c-0.528,0.563-0.81,1.303-0.81,2.075V60.5H72.5V58.229z M44.808,58.229c0-0.77-0.282-1.513-0.81-2.075 c-1.199-1.279-3.754-2.654-7.844-2.654s-6.644,1.375-7.844,2.654c-0.528,0.563-0.81,1.303-0.81,2.075V60.5h17.308V58.229z"/><path fill="#1f212b" d="M73,61H54.692v-2.771c0-0.909,0.336-1.768,0.945-2.417C56.43,54.967,58.817,53,63.846,53 s7.416,1.967,8.208,2.813C72.664,56.462,73,57.32,73,58.229V61z M55.692,60H72v-1.771c0-0.654-0.24-1.27-0.675-1.733 C70.776,55.911,68.615,54,63.846,54s-6.93,1.911-7.479,2.496c-0.435,0.464-0.675,1.079-0.675,1.733V60z M45.308,61H27v-2.771 c0-0.909,0.336-1.768,0.945-2.417C28.738,54.967,31.125,53,36.154,53s7.416,1.967,8.208,2.813c0.609,0.649,0.945,1.508,0.945,2.417 V61z M28,60h16.308v-1.771c0-0.654-0.24-1.27-0.675-1.733C43.084,55.911,40.922,54,36.154,54s-6.93,1.911-7.479,2.496 C28.24,56.96,28,57.575,28,58.229V60z"/><g><path fill="#fefdef" d="M60.5,56.737c0-0.89-0.343-1.747-0.984-2.397C58.062,52.862,54.961,50.5,50,50.5 s-8.062,2.362-9.516,3.838c-0.641,0.65-0.984,1.507-0.984,2.398V60.5h21V56.737z"/><path fill="#1f212b" d="M61,61H39v-4.264c0-1.035,0.4-2.012,1.127-2.749C41.594,52.498,44.827,50,50,50 c5.176,0,8.407,2.499,9.873,3.989C60.6,54.727,61,55.702,61,56.736V61z M40,60h20v-3.264c0-0.77-0.298-1.496-0.84-2.046 C57.804,53.313,54.811,51,50,51c-4.809,0-7.803,2.312-9.161,3.688C40.298,55.238,40,55.966,40,56.736V60z"/></g><g><path fill="#fefdef" d="M56.5,69.5h14v4h-14V69.5z"/><path fill="#1f212b" d="M70.5,74h-14c-0.276,0-0.5-0.224-0.5-0.5v-4c0-0.276,0.224-0.5,0.5-0.5h14 c0.276,0,0.5,0.224,0.5,0.5v4C71,73.776,70.776,74,70.5,74z M57,73h13v-3H57V73z"/></g><g><path fill="#a1d3a2" d="M64,44.5c-1.933,0-3.5,1.567-3.5,3.5s1.567,3.5,3.5,3.5c1.933,0,3.5-1.567,3.5-3.5 S65.933,44.5,64,44.5z"/><path fill="#1f212b" d="M64,52c-2.206,0-4-1.794-4-4s1.794-4,4-4s4,1.794,4,4S66.206,52,64,52z M64,45c-1.654,0-3,1.346-3,3 s1.346,3,3,3s3-1.346,3-3S65.654,45,64,45z"/></g><g><path fill="#1f212b" d="M76.957,82H50.413c-0.552,0-1-0.447-1-1s0.448-1,1-1h26.544c0.552,0,1,0.447,1,1 S77.509,82,76.957,82z"/></g><g><path fill="#1f212b" d="M73.675,74H53.347c-0.276,0-0.5-0.224-0.5-0.5s0.224-0.5,0.5-0.5h20.328c0.276,0,0.5,0.224,0.5,0.5 S73.951,74,73.675,74z"/></g></svg>