<?xml version="1.0" encoding="utf-8"?>
<!-- Generator: Adobe Illustrator 25.4.1, SVG Export Plug-In . SVG Version: 6.00 Build 0)  -->
<svg version="1.1" xmlns="http://www.w3.org/2000/svg" xmlns:xlink="http://www.w3.org/1999/xlink" x="0px" y="0px"
	 viewBox="0 200 1080 830" style="enable-background:new 0 0 1080 1080;" xml:space="preserve">
<style type="text/css">
	.st0{display:none;}
	.st1{display:inline;}
	.st2{fill:#0B3948;}
	.st3{fill:#062A38;}
	.st4{fill:#2D4A51;}
	.st5{fill:#416165;}
	.st6{fill:#37A597;}
	.st7{fill:#49BEAA;}
	.st8{fill:#EF767A;stroke:#0B3948;stroke-width:20;stroke-miterlimit:10;}
	.st9{fill:#72CEC0;}
	.st10{fill:#FFFFFF;stroke:#FFFFFF;stroke-miterlimit:10;}
	.st11{fill:#FFFFFF;}
	.st12{font-family:'Nunito-Regular';}
	.st13{font-size:33px;}
</style>
<g id="Layer_2" class="st0">
	<rect x="-203" y="-209" class="st1" width="1432" height="1520"/>
</g>
<g id="Layer_1">
	<path class="st2" d="M930.84,828.37c-11.63,14.72-39.74,15.21-57.45,1.22c-17.71-13.99-24.31-55.29-12.68-70
		c11.63-14.72,47.19-22.19,64.46-11.87C944.47,759.25,942.46,813.66,930.84,828.37z"/>
	<path class="st3" d="M924.62,764.68c-48.85,61.83-166.96,63.92-241.38,5.13c-74.41-58.79-102.13-232.31-53.28-294.15
		s150.63-48.87,223.19-5.51C934.25,518.62,973.47,702.84,924.62,764.68z"/>
	<path class="st3" d="M871.19,924.65c-79.82,101.04-253.01,120.1-354.05,40.28S398.85,623.7,478.68,522.66
		s227.08-94.91,327.48-38.42C918.37,547.4,951.02,823.61,871.19,924.65z"/>
	<path class="st2" d="M784.65,907.69c-75.69,95.81-239.91,113.88-335.72,38.19s-112.17-323.56-36.48-419.37s215.33-90,310.52-36.43
		C829.38,549.96,860.34,811.88,784.65,907.69z"/>
	<path class="st2" d="M193.62,756.6c-108.13-42.46-142.77-183.83,24.61-192"/>
	<path class="st3" d="M195.79,607.84c-8.1,13.04-37.57,51.01-8.63,69.62c25.69,16.52,1.4,57.77-37.64,18.66
		c-68.65-68.78-66.67-182.96,68.74-146.63"/>
	<path class="st4" d="M648.52,614.92c64.07,93.97,34.38,244.97-59.58,309.04s-318.84,9.56-382.91-84.41s-20.01-216.46,54.13-286.15
		C343.03,475.51,584.45,520.96,648.52,614.92z"/>
	<path class="st5" d="M497.89,644.86c43.63,63.98,23.41,166.8-40.57,210.43c-63.98,43.63-217.1,6.51-260.73-57.48
		s-13.62-147.39,36.86-194.85C289.88,549.93,454.27,580.87,497.89,644.86z"/>
	<g>
		<path class="st6" d="M676.48,518.93c-37.7,172.03-183.68,153.85-324.05,133.86C205.54,631.87,176.41,530.5,174.12,445.91
			c-3.17-117.34,114.31-199.99,261.3-179.84C582.54,286.23,714.39,345.99,676.48,518.93z"/>
	</g>
	<path class="st6" d="M286.04,406.18c-48.99,9.77-97.14-24.56-107.54-76.69c-10.4-52.13,20.88-102.32,69.87-112.09
		c48.99-9.77,123.31,35.39,133.71,87.52C392.48,357.04,335.03,396.4,286.04,406.18z"/>
	<path class="st7" d="M275.58,400.76c-45.13,9-89.48-22.63-99.06-70.65c-9.58-48.02,19.24-94.25,64.37-103.26
		s113.59,32.6,123.17,80.62S320.71,391.76,275.58,400.76z"/>
	<path class="st6" d="M468.89,268.66c40.87-43.23,125.23-29.83,170.47,12.94s48.78,112.48,7.91,155.71
		c-40.87,43.23-110.67,43.59-155.91,0.82S428.02,311.89,468.89,268.66z"/>
	<path class="st7" d="M460.06,279.63c34.72-37,106.72-25.85,145.44,10.48s41.97,95.78,7.25,132.78
		c-34.72,37-94.25,37.54-132.98,1.21S425.34,316.63,460.06,279.63z"/>
	<g>
		<path class="st7" d="M619.5,522.88C578.46,670.1,450.87,651.36,315.1,623.01c-131.7-27.5-164.75-110.92-161.68-187.59
			c4.38-109.57,103.65-181.34,236.94-163.07C523.75,290.63,675.28,322.79,619.5,522.88z"/>
	</g>
	<path class="st8" d="M325.18,372.36l84.77,12.06c6.2,0.88,11.74,7.05,9.43,12.86c-21.15,53.33-39.12,59.36-57.73,58.68
		c-19.09-0.69-32.12-19.63-41.72-79.05v0C319.93,374.12,322.41,371.97,325.18,372.36z"/>
	<path class="st9" d="M607.27,654.55"/>
	<path class="st2" d="M647.57,741.67c2.36,16.14,14.63,56.2,40.73,62.47c12.72,3.05,3.86,50.81-16,53.08
		c-102.64,11.75-181.4-115.01-46.49-178.36"/>
	<path class="st3" d="M655.63,731.57c2.22,15.18,7.37,58.08,41.49,53.63c30.29-3.95,54.43,44.61-19.9,43.68
		c-97.17-1.22-168.97-96.79-42.06-156.39"/>
	<path class="st2" d="M667.84,707.99c1.76-15.24,2.29-63.31,36.53-59.89c30.4,3.03,50.75-43.13-17.87-38.02
		c-96.91,7.22-165.98,101.83-37.34,157.58"/>
	<path class="st3" d="M654.96,715.61c1.76-15.24,2.29-63.31,36.53-59.89c30.4,3.03,38.08-13.66,0.04-18.97
		c-72.63-10.14-204.4,61.29-75.76,117.04"/>
	<path class="st6" d="M681.01,649.57c47.87,19.14,27.04,121.8-32.79,127.86c-51.29,5.19-138.84-13.89-185.94-34.83
		c-63.03-28.01,5.07-148.71,36.59-107.92c9.51,12.3,33.32,21.14,135.06,14.02C669.72,646.2,673.48,646.56,681.01,649.57z"/>
	
		<ellipse transform="matrix(0.3059 -0.9521 0.9521 0.3059 -445.6028 588.5678)" class="st6" cx="180.86" cy="599.89" rx="76.27" ry="79.41"/>
	<circle class="st7" cx="175.02" cy="590.27" r="67.16"/>
	
		<ellipse transform="matrix(0.3059 -0.9521 0.9521 0.3059 -323.1255 905.5676)" class="st6" cx="459.51" cy="674.39" rx="81.19" ry="85.46"/>
	<path class="st7" d="M645.67,656.45c36.7,14.68,20.73,93.4-25.15,98.05c-39.33,3.98-98.5-9.22-134.62-25.28
		c-48.33-21.48,0.98-129.33,25.15-98.05C549.44,680.85,607.12,641.04,645.67,656.45z"/>
	<circle class="st7" cx="451.2" cy="662.97" r="69.6"/>
	<path class="st9" d="M634.43,604.93"/>
	<path class="st2" d="M584.7,357.83c-4.07,29.1-36.05,24.51-65.13,15.17s-45.82-18.6-40.15-43.72
		C491.91,273.96,597.19,268.6,584.7,357.83z"/>
	<path class="st2" d="M310.94,306.83c-7.1,22.08-18.64,23.05-66.69,29.7c-22.98,3.18-32.37-26.25-27.4-48.91
		c6.15-28.05,42.94-36.51,65.39-27.05C303.62,269.58,318.03,284.74,310.94,306.83z"/>
	<circle class="st10" cx="556.14" cy="332.94" r="15.38"/>
	<circle class="st10" cx="291.08" cy="293.62" r="13.83"/>
	<path class="st11" d="M610.06,185.1c-29.82,0-54-24.17-54-54v-9.67c0-30.34,24.59-54.93,54.93-54.93h329.98
		c30.34,0,54.93,24.59,54.93,54.93v8.74c0,30.34-24.59,54.93-54.93,54.93h-5.08c-0.27,0-0.53,0.12-0.7,0.33
		c-13.52,16.01-39.09,26.55-53.39,31.48c-2.77,0.96-5.15-2.11-3.6-4.6c5.78-9.34,5.16-19.41,3.05-27.21"/>
	<text transform="matrix(1 0 0 1 605.0377 132.7567)" class="st2 st12 st13">Hi! My name is Hopper!</text>
</g>
</svg>
