<?xml version="1.0" encoding="utf-8"?>
<!-- Generator: Adobe Illustrator 25.3.1, SVG Export Plug-In . SVG Version: 6.00 Build 0)  -->
<svg version="1.1" xmlns="http://www.w3.org/2000/svg" xmlns:xlink="http://www.w3.org/1999/xlink" x="0px" y="0px"
	 viewBox="280 124 512 512" style="enable-background:new 0 0 1080 1080;" xml:space="preserve">
<style type="text/css">
	.st0{fill:#39B54A;}
	.st1{fill:#45C9C2;}
	.st2{fill:#8CE0D7;}
	.st3{fill:#403D39;}
	.st4{fill:#FC908B;}
	.st5{fill:#FFFFFF;stroke:#FFFFFF;stroke-miterlimit:10;}
	.st6{fill:#FC908B;stroke:#403D39;stroke-width:14;stroke-linecap:round;stroke-linejoin:round;stroke-miterlimit:10;}
	.st7{fill:#F15A24;}
	.st8{fill:#F7931E;}
	.st9{fill:#FBB03B;}
	.st10{font-family:'Consolas';}
	.st11{font-size:25px;}
</style>
<g id="body">
	<path class="st0" d="M824.42,656.47c0.01,191.81-154.41,201.37-285.75,201.37s-237.81-90.59-237.81-202.33
		s112.32-163.57,237.81-202.33C669.08,412.91,824.41,477.16,824.42,656.47z"/>
</g>
<g id="head">
	<path class="st1" d="M789.8,263.98c4.49,49.54-16.66,113.33-89.53,92.08c-51.79-15.11-60.12-67.59-105.78-87.33
		c-53.69-23.21,35.59-90.77,89.53-92.08S785.31,214.43,789.8,263.98z"/>
	<path class="st1" d="M493.04,285.79c-25.18,47.62-46.1,74.51-91.91,102.83c-44.29,27.38-99.82-38.14-102.83-91.91
		c-3.02-53.78,38.14-99.82,91.91-102.83S514.58,245.04,493.04,285.79z"/>
	<g>
		<path class="st1" d="M651.68,578.62l-144.4,8.1c-126.5,5.24-181-15.34-187.88-138.04v0c-6.88-122.7,88.57-199.97,211.26-206.85
			l57.39-3.22c122.7-6.88,226.18,59.24,233.06,181.93v0C827.98,543.24,770.57,570.1,651.68,578.62z"/>
	</g>
	<g>
		<path class="st2" d="M622.87,560.85l-126.24,7.08c-110.59,4.58-158.24-13.41-164.25-120.68l0,0
			c-6.01-107.26,77.43-174.82,184.69-180.83l50.17-2.81c107.26-6.01,197.73,51.79,203.75,159.05l0,0
			C777,529.93,726.81,553.4,622.87,560.85z"/>
	</g>
	<path class="st2" d="M763.96,285.02c2.75,49.08-24.79,115.07-83.88,93.85c-46.26-16.61-71.36-40.17-93.85-83.88
		c-20.8-40.42,34.8-91.1,83.88-93.85C719.19,198.38,761.21,235.94,763.96,285.02z"/>
	<path class="st2" d="M480.6,297.54c-21.73,41.1-39.79,64.32-79.34,88.77c-38.23,23.64-86.17-32.92-88.77-79.34
		s32.92-86.17,79.34-88.77C438.26,215.59,499.2,262.37,480.6,297.54z"/>
	<path class="st3" d="M722.85,289.18c-8.81,25.72-33.35,24.7-59.07,15.89c-25.72-8.81-42.86-22.07-34.06-47.78
		c8.81-25.72,36.79-39.42,62.51-30.62C717.95,235.48,731.65,263.47,722.85,289.18z"/>
	<path class="st3" d="M441.9,268.89c11.82,23.41-1.09,37.38-24.51,49.2s-48.46,17.03-60.28-6.38s-2.43-51.98,20.99-63.81
		C401.51,236.08,430.08,245.47,441.9,268.89z"/>
	
		<ellipse transform="matrix(0.1987 -0.9801 0.9801 0.1987 195.7776 935.3448)" class="st4" cx="669.9" cy="347.94" rx="30.54" ry="39.27"/>
	
		<ellipse transform="matrix(0.957 -0.29 0.29 0.957 -88.1014 132.2813)" class="st4" cx="402.22" cy="363.36" rx="37.16" ry="28.91"/>
	<circle class="st5" cx="378.37" cy="279.61" r="16.18"/>
	<path class="st1" d="M749.34,544.3c42.52,24.37,9.29,118.25-47.84,116.02c-48.97-1.92-128.85-31.51-170.42-57.47
		c-55.62-34.74,24.51-139.32,48.77-96.73c7.32,12.85,28.56,24.32,125.28,31.12C739.16,539.63,742.65,540.47,749.34,544.3z"/>
	<path class="st2" d="M721.66,543.71c47.29,21.52,7.44,94.7-38.31,92.91c-39.22-1.54-103.19-25.23-136.48-46.02
		c-44.54-27.82,19.63-111.57,39.06-77.47c5.86,10.29,22.87,19.48,100.33,24.93C713.51,539.97,716.04,541.15,721.66,543.71z"/>
	
		<ellipse transform="matrix(0.9997 -0.0245 0.0245 0.9997 -8.2251 13.1337)" class="st6" cx="532.71" cy="342.76" rx="27.92" ry="30.54"/>
	<circle class="st5" cx="653.67" cy="263.29" r="16.18"/>
</g>
<g id="backpack">
	<path class="st7" d="M701.87,933.58c-54.25,0-109.64-12.16-118.85-14.28l11.71-51.03c32.68,7.48,84.26,14.82,123.17,12.72
		c-5.58-2.33-11.47-4.92-17.61-7.78c-68.86-32.13-169.41-159.31-180.65-173.71l41.27-32.22c28.41,36.37,112.81,135.75,161.52,158.48
		c17.06,7.96,31.93,13.46,43.88,17.87c9.19,3.4,10.63-4.34,16.55-1.42c13.63,6.73,26.85,26.64,27.83,38.62
		c1.71,21.09-17.42,31.95-25.6,36.59C763.66,929.59,732.94,933.58,701.87,933.58z"/>
	<path class="st8" d="M713.62,915.57c-11,0-22.98-0.64-35.99-1.93c-27.17-2.68-50.45-7.42-57.87-9.02
		c-1.35-0.29-2.19-1.63-1.88-2.97l10.6-46.2c0.3-1.33,1.61-2.15,2.94-1.86c17.39,3.84,39.4,7.24,60.39,8.78
		c2.46,0.18,3.61-2.94,1.66-4.44c-21.88-16.77-42.84-47.42-63.67-92.97c-15.17-33.15-25.34-63.69-28.12-72.32
		c-0.42-1.31,0.31-2.7,1.63-3.11l47.63-14.76l-25,7.75l22.65-7.03c1.3-0.4,2.67,0.31,3.08,1.61
		c16.58,52.36,51.52,129.85,79.25,142.79c13.25,6.18,24.87,10.47,34.2,13.92c19,7.02,36.95,13.65,38.61,34.09
		c1.64,20.15-16.24,30.3-22.97,34.12C764.76,911.08,742.64,915.57,713.62,915.57z M757.92,854.61L757.92,854.61L757.92,854.61z"/>
	<path class="st7" d="M672.91,679.91c22.15,130.9,9.66,293.75-225.72,267.23c-103.93-11.71-275.2-61.48-181.51-209.32
		c62.68-98.92,35.13-222.5,177.12-242.99C613.97,470.11,653.71,566.47,672.91,679.91z"/>
	<path class="st9" d="M622.35,700.68c0,106.53,17.27,241.61-199.63,217.17c-95.77-10.79-253.59-56.65-167.26-192.89
		c57.76-91.15,32.37-205.03,163.21-223.91C576.4,478.28,622.35,594.15,622.35,700.68z"/>
	<path class="st7" d="M630.29,632.83c-8.43-23.74-16.1-43.46-24.36-59.54c-1.01-1.97-3.99-0.78-3.35,1.34
		c4.28,14.15,7.07,30.82,8.51,50.3c5.67,76.48-18.37,151.07-181.69,134.74c-12.52-1.25-23.98-2.74-34.46-4.46
		c-2.97-0.49-3.81,3.92-0.88,4.57c15.35,3.37,33.23,6.1,54.02,8.18C611.86,784.33,651.97,693.87,630.29,632.83z"/>
	<path class="st9" d="M610.97,624.61c5.67,76.48-18.37,151.07-181.69,134.74c-136.64-13.66-147.11-55.43-142.9-123.51
		c6.12-99.01,64.85-111.8,142.9-123.51C551.76,493.96,602.8,514.37,610.97,624.61z"/>
	<path class="st7" d="M317.45,761.93h4.1c9.53,0,17.25-7.69,17.34-17.22c0.08-8.26,1.14-18.35,4.73-27.64
		c4.41-11.39-3.94-23.65-16.15-23.65h0c-5.12,0-9.99,2.26-13.28,6.18c-5.67,6.77-13.03,18.94-17.9,31.28
		C289.54,747.95,299.09,761.93,317.45,761.93z"/>
	<path class="st7" d="M489.26,793.34h4.69c10.93,0,19.77-8.81,19.88-19.74c0.09-9.47,1.3-21.04,5.42-31.68
		c5.05-13.05-4.51-27.11-18.51-27.11h0c-5.87,0-11.45,2.59-15.22,7.09c-6.5,7.76-14.93,21.71-20.52,35.86
		C457.27,777.32,468.22,793.34,489.26,793.34z"/>
</g>
<g id="hands">
	<g>
		<path class="st1" d="M391.91,489.98c16.04,31.03-7.85,48.32-41.68,65.8s-64.78,28.54-80.82-2.49s1.88-64.82,32.21-87.84
			C333.41,441.32,375.87,458.95,391.91,489.98z"/>
		<path class="st2" d="M374.14,490.41c13.77,26.65-6.74,41.49-35.8,56.51c-29.05,15.01-55.64,24.51-69.41-2.14
			c-13.77-26.65,1.61-55.67,27.67-75.44C323.9,448.62,360.37,463.76,374.14,490.41z"/>
	</g>
	<g>
		<path class="st1" d="M491.46,498.92c-12.78,34.78,14.65,49.81,52.56,63.75c37.91,13.93,71.95,21.48,84.73-13.3
			c12.78-34.78-10.54-67.98-45.51-88.2C546.6,439.98,504.24,464.14,491.46,498.92z"/>
		<path class="st2" d="M497.8,492.02c-10.98,29.88,12.58,42.8,45.16,54.77c32.57,11.97,61.82,18.46,72.8-11.42
			c10.98-29.88-9.06-58.4-39.1-75.78C545.18,441.38,508.78,462.14,497.8,492.02z"/>
	</g>
	<text transform="matrix(1 0 0 1 173.0249 117.938)" class="st10 st11">You’re in 10th grade? Me too!  </text>
</g>
</svg>
