<svg fill="#000000" xmlns="http://www.w3.org/2000/svg"  viewBox="0 0 64 64" width="100px" height="100px"><path d="M 13 6 C 9.1482075 6 6 9.1482075 6 13 L 6 51 C 6 54.851793 9.1482075 58 13 58 L 51 58 C 54.851793 58 58 54.851793 58 51 L 58 13 C 58 9.1482075 54.851793 6 51 6 L 13 6 z M 13 8 L 51 8 C 53.768207 8 56 10.231793 56 13 L 56 51 C 56 53.768207 53.768207 56 51 56 L 13 56 C 10.231793 56 8 53.768207 8 51 L 8 13 C 8 10.231793 10.231793 8 13 8 z M 21 12 A 1.0001 1.0001 0 0 0 20 13 L 20 50 A 1.0001 1.0001 0 1 0 22 50 L 22 14 L 24 14 L 24 50 A 1.0001 1.0001 0 0 0 25 51 L 29 51 A 1.0001 1.0001 0 0 0 30 50 L 30 14 L 36 14 C 42.63961 14 48 19.36039 48 26 C 48 32.63961 42.63961 38 36 38 L 34 38 L 34 36 L 35.900391 36 C 41.460812 36 46 31.517369 46 26 C 46 20.482631 41.460812 16 35.900391 16 L 33 16 A 1.0001 1.0001 0 0 0 32 17 L 32 21 A 1.0001 1.0001 0 0 0 33 22 L 34.691406 22 C 37.113138 22 39 23.812947 39 26 C 39 28.187053 37.113138 30 34.691406 30 L 33 30 A 1.0001 1.0001 0 1 0 33 32 L 34.691406 32 C 38.131675 32 41 29.334947 41 26 C 41 22.665053 38.131675 20 34.691406 20 L 34 20 L 34 18 L 35.900391 18 C 40.39197 18 44 21.575369 44 26 C 44 30.424631 40.39197 34 35.900391 34 L 33 34 A 1.0001 1.0001 0 0 0 32 35 L 32 39 A 1.0001 1.0001 0 0 0 33 40 L 36 40 C 43.72039 40 50 33.72039 50 26 C 50 18.27961 43.72039 12 36 12 L 29 12 A 1.0001 1.0001 0 0 0 28 13 L 28 49 L 26 49 L 26 13 A 1.0001 1.0001 0 0 0 25 12 L 21 12 z M 14 16 C 13.448 16 13 16.447 13 17 C 13 17.553 13.448 18 14 18 L 16 18 C 16.552 18 17 17.553 17 17 C 17 16.447 16.552 16 16 16 L 14 16 z M 14 21 C 13.448 21 13 21.447 13 22 C 13 22.553 13.448 23 14 23 L 16 23 C 16.552 23 17 22.553 17 22 C 17 21.447 16.552 21 16 21 L 14 21 z M 14 26 C 13.448 26 13 26.447 13 27 C 13 27.553 13.448 28 14 28 L 16 28 C 16.552 28 17 27.553 17 27 C 17 26.447 16.552 26 16 26 L 14 26 z M 14 31 C 13.448 31 13 31.447 13 32 C 13 32.553 13.448 33 14 33 L 16 33 C 16.552 33 17 32.553 17 32 C 17 31.447 16.552 31 16 31 L 14 31 z M 14 36 C 13.448 36 13 36.447 13 37 C 13 37.553 13.448 38 14 38 L 16 38 C 16.552 38 17 37.553 17 37 C 17 36.447 16.552 36 16 36 L 14 36 z M 14 41 C 13.448 41 13 41.447 13 42 C 13 42.553 13.448 43 14 43 L 16 43 C 16.552 43 17 42.553 17 42 C 17 41.447 16.552 41 16 41 L 14 41 z M 14 46 C 13.448 46 13 46.447 13 47 C 13 47.553 13.448 48 14 48 L 16 48 C 16.552 48 17 47.553 17 47 C 17 46.447 16.552 46 16 46 L 14 46 z"/></svg>