<svg xmlns="http://www.w3.org/2000/svg"  viewBox="0 0 64 64" width="100px" height="100px"><path fill="#6e91ce" d="M7,13v38c0,3.31,2.69,6,6,6h38c3.31,0,6-2.69,6-6V13c0-3.31-2.69-6-6-6H13C9.69,7,7,9.69,7,13z"/><path fill="#8d6c9f" d="M51,58H13c-3.86,0-7-3.141-7-7V13c0-3.859,3.14-7,7-7h38c3.86,0,7,3.141,7,7v38	C58,54.859,54.86,58,51,58z M13,8c-2.757,0-5,2.243-5,5v38c0,2.757,2.243,5,5,5h38c2.757,0,5-2.243,5-5V13c0-2.757-2.243-5-5-5H13z"/><path fill="#85cbf8" d="M29,51h-4c-0.552,0-1-0.447-1-1V14h-2v36c0,0.553-0.448,1-1,1s-1-0.447-1-1V13c0-0.553,0.448-1,1-1h4	c0.552,0,1,0.447,1,1v36h2V13c0-0.553,0.448-1,1-1h7c7.72,0,14,6.28,14,14s-6.28,14-14,14h-3c-0.552,0-1-0.447-1-1v-4	c0-0.553,0.448-1,1-1h2.9c4.466,0,8.1-3.589,8.1-8s-3.634-8-8.1-8H34v2h0.692C38.17,20,41,22.691,41,26s-2.83,6-6.308,6H33	c-0.552,0-1-0.447-1-1s0.448-1,1-1h1.692C37.067,30,39,28.206,39,26s-1.933-4-4.308-4H33c-0.552,0-1-0.447-1-1v-4	c0-0.553,0.448-1,1-1h2.9C41.469,16,46,20.486,46,26s-4.531,10-10.1,10H34v2h2c6.617,0,12-5.383,12-12s-5.383-12-12-12h-6v36	C30,50.553,29.552,51,29,51z"/><path fill="#8d6c9f" d="M16,18h-2c-0.552,0-1-0.447-1-1s0.448-1,1-1h2c0.552,0,1,0.447,1,1S16.552,18,16,18z"/><path fill="#8d6c9f" d="M16,23h-2c-0.552,0-1-0.447-1-1s0.448-1,1-1h2c0.552,0,1,0.447,1,1S16.552,23,16,23z"/><path fill="#8d6c9f" d="M16,28h-2c-0.552,0-1-0.447-1-1s0.448-1,1-1h2c0.552,0,1,0.447,1,1S16.552,28,16,28z"/><path fill="#8d6c9f" d="M16,33h-2c-0.552,0-1-0.447-1-1s0.448-1,1-1h2c0.552,0,1,0.447,1,1S16.552,33,16,33z"/><path fill="#8d6c9f" d="M16,38h-2c-0.552,0-1-0.447-1-1s0.448-1,1-1h2c0.552,0,1,0.447,1,1S16.552,38,16,38z"/><path fill="#8d6c9f" d="M16,43h-2c-0.552,0-1-0.447-1-1s0.448-1,1-1h2c0.552,0,1,0.447,1,1S16.552,43,16,43z"/><path fill="#8d6c9f" d="M16,48h-2c-0.552,0-1-0.447-1-1s0.448-1,1-1h2c0.552,0,1,0.447,1,1S16.552,48,16,48z"/></svg>
