<svg xmlns="http://www.w3.org/2000/svg"  viewBox="0 0 100 100" width="100px" height="100px"><circle cx="50" cy="50" r="35" fill="#3070b7"/><circle cx="50" cy="50" r="30" fill="#fff"/><path fill="#1f212b" d="M50,86c-19.851,0-36-16.149-36-36s16.149-36,36-36s36,16.149,36,36S69.851,86,50,86z M50,16	c-18.748,0-34,15.252-34,34c0,18.748,15.252,34,34,34c18.748,0,34-15.252,34-34C84,31.252,68.748,16,50,16z"/><path fill="#1f212b" d="M65.289,24.683c-0.087,0-0.176-0.022-0.256-0.07c-0.694-0.413-1.421-0.804-2.161-1.164	c-0.248-0.121-0.352-0.42-0.23-0.668c0.12-0.249,0.423-0.349,0.668-0.231c0.765,0.372,1.517,0.777,2.235,1.204	c0.237,0.141,0.315,0.448,0.174,0.685C65.625,24.596,65.459,24.683,65.289,24.683z"/><path fill="#1f212b" d="M69.856,28.011c-0.118,0-0.236-0.041-0.331-0.125c-0.654-0.578-1.338-1.13-2.033-1.643	c-0.222-0.164-0.27-0.477-0.105-0.699c0.164-0.222,0.478-0.269,0.699-0.105c0.719,0.53,1.426,1.101,2.102,1.698	c0.207,0.183,0.227,0.499,0.044,0.706C70.133,27.954,69.995,28.011,69.856,28.011z"/><path fill="#1f212b" d="M50,80.5c-16.818,0-30.5-13.683-30.5-30.5c0-16.818,13.682-30.5,30.5-30.5	c3.609,0,7.143,0.625,10.502,1.857c0.26,0.095,0.393,0.382,0.298,0.642s-0.384,0.393-0.642,0.297C56.909,21.104,53.491,20.5,50,20.5	c-16.267,0-29.5,13.233-29.5,29.5S33.733,79.5,50,79.5S79.5,66.267,79.5,50c0-7.013-2.504-13.81-7.049-19.137	c-0.18-0.21-0.154-0.526,0.056-0.705c0.209-0.178,0.525-0.155,0.704,0.056C77.911,35.722,80.5,42.75,80.5,50	C80.5,66.817,66.817,80.5,50,80.5z"/><path fill="#444445" d="M66,59c0,5.61-6.11,11.61-15.21,11.61c-9.42,0-15.14-4.82-16.59-13.98l6.641-1.165	c0,6.399,3.479,9.145,9.949,9.145c5.54,0,9.235-2.5,9.21-5.61c-0.024-2.982-1.805-4.573-8.72-6.06C44.048,51.385,35,49.75,35,41	c0-7.14,7.73-11,15-11c8.3,0,13.68,4.68,14.88,12.89l-6.565,0.84C58.315,38.402,55.32,36,50,36c-4.35,0-9,0.942-9,5	c0,2.96,2.56,4.32,11.43,6.06C58.75,48.3,66,50.77,66,59z"/><path fill="#1f212b" d="M50.79,71.11c-9.685,0-15.593-4.98-17.083-14.402c-0.043-0.27,0.139-0.523,0.407-0.57l6.641-1.165	c0.146-0.024,0.295,0.015,0.408,0.109s0.178,0.235,0.178,0.383c0,5.898,3.002,8.646,9.449,8.646c3.25,0,5.993-0.887,7.526-2.433	c0.782-0.788,1.191-1.713,1.184-2.674c-0.021-2.515-1.313-4.067-8.325-5.574l-0.721-0.155C43.346,51.756,34.5,49.866,34.5,41	c0-7.47,7.986-11.5,15.5-11.5c8.533,0,14.138,4.854,15.375,13.318c0.019,0.133-0.016,0.268-0.097,0.375s-0.202,0.177-0.335,0.194	l-6.564,0.84c-0.141,0.017-0.285-0.026-0.394-0.121c-0.108-0.095-0.17-0.232-0.17-0.375c0-4.865-2.557-7.23-7.815-7.23	c-5.64,0-8.5,1.514-8.5,4.5c0,2.355,1.592,3.718,11.026,5.569C59.032,47.846,66.5,50.412,66.5,59	C66.5,64.849,60.188,71.11,50.79,71.11z M34.776,57.036c1.528,8.557,7.056,13.074,16.014,13.074c8.799,0,14.71-5.745,14.71-11.11	c0-7.858-7.036-10.247-13.167-11.449C43.154,45.75,40.5,44.28,40.5,41c0-2.509,1.648-5.5,9.5-5.5c5.562,0,8.595,2.647,8.804,7.664	l5.502-0.704C63.002,34.851,57.813,30.5,50,30.5c-7.029,0-14.5,3.68-14.5,10.5c0,8.057,8.056,9.778,15.163,11.297l0.723,0.154	c6.786,1.459,9.086,3.11,9.114,6.545c0.01,1.233-0.499,2.404-1.474,3.387c-1.719,1.733-4.722,2.728-8.236,2.728	c-6.813,0-10.234-2.963-10.439-9.052L34.776,57.036z"/></svg>